<svg aria-roledescription="er" viewBox="0 0 461.49346923828125 320" style="max-width: 461.493px; background-color: white;" xmlns:xlink="http://www.w3.org/1999/xlink" xmlns="http://www.w3.org/2000/svg" width="100%" id="mermaid-0"><style>#mermaid-0{font-family:"trebuchet ms",verdana,arial,sans-serif;font-size:16px;fill:#000000;}#mermaid-0 .error-icon{fill:#552222;}#mermaid-0 .error-text{fill:#552222;stroke:#552222;}#mermaid-0 .edge-thickness-normal{stroke-width:2px;}#mermaid-0 .edge-thickness-thick{stroke-width:3.5px;}#mermaid-0 .edge-pattern-solid{stroke-dasharray:0;}#mermaid-0 .edge-pattern-dashed{stroke-dasharray:3;}#mermaid-0 .edge-pattern-dotted{stroke-dasharray:2;}#mermaid-0 .marker{fill:#000000;stroke:#000000;}#mermaid-0 .marker.cross{stroke:#000000;}#mermaid-0 svg{font-family:"trebuchet ms",verdana,arial,sans-serif;font-size:16px;}#mermaid-0 .entityBox{fill:#cde498;stroke:#13540c;}#mermaid-0 .attributeBoxOdd{fill:#ffffff;stroke:#13540c;}#mermaid-0 .attributeBoxEven{fill:#f2f2f2;stroke:#13540c;}#mermaid-0 .relationshipLabelBox{fill:hsl(78.1578947368, 58.4615384615%, 84.5098039216%);opacity:0.7;background-color:hsl(78.1578947368, 58.4615384615%, 84.5098039216%);}#mermaid-0 .relationshipLabelBox rect{opacity:0.5;}#mermaid-0 .relationshipLine{stroke:#000000;}#mermaid-0 .entityTitleText{text-anchor:middle;font-size:18px;fill:#000000;}#mermaid-0 :root{--mermaid-font-family:"trebuchet ms",verdana,arial,sans-serif;}</style><g/><defs><marker orient="auto" markerHeight="18" markerWidth="18" refY="9" refX="0" id="ONLY_ONE_START"><path d="M9,0 L9,18 M15,0 L15,18" fill="none" stroke="gray"/></marker></defs><defs><marker orient="auto" markerHeight="18" markerWidth="18" refY="9" refX="18" id="ONLY_ONE_END"><path d="M3,0 L3,18 M9,0 L9,18" fill="none" stroke="gray"/></marker></defs><defs><marker orient="auto" markerHeight="18" markerWidth="30" refY="9" refX="0" id="ZERO_OR_ONE_START"><circle r="6" cy="9" cx="21" fill="white" stroke="gray"/><path d="M9,0 L9,18" fill="none" stroke="gray"/></marker></defs><defs><marker orient="auto" markerHeight="18" markerWidth="30" refY="9" refX="30" id="ZERO_OR_ONE_END"><circle r="6" cy="9" cx="9" fill="white" stroke="gray"/><path d="M21,0 L21,18" fill="none" stroke="gray"/></marker></defs><defs><marker orient="auto" markerHeight="36" markerWidth="45" refY="18" refX="18" id="ONE_OR_MORE_START"><path d="M0,18 Q 18,0 36,18 Q 18,36 0,18 M42,9 L42,27" fill="none" stroke="gray"/></marker></defs><defs><marker orient="auto" markerHeight="36" markerWidth="45" refY="18" refX="27" id="ONE_OR_MORE_END"><path d="M3,9 L3,27 M9,18 Q27,0 45,18 Q27,36 9,18" fill="none" stroke="gray"/></marker></defs><defs><marker orient="auto" markerHeight="36" markerWidth="57" refY="18" refX="18" id="ZERO_OR_MORE_START"><circle r="6" cy="18" cx="48" fill="white" stroke="gray"/><path d="M0,18 Q18,0 36,18 Q18,36 0,18" fill="none" stroke="gray"/></marker></defs><defs><marker orient="auto" markerHeight="36" markerWidth="57" refY="18" refX="39" id="ZERO_OR_MORE_END"><circle r="6" cy="18" cx="9" fill="white" stroke="gray"/><path d="M21,18 Q39,0 57,18 Q39,36 21,18" fill="none" stroke="gray"/></marker></defs><path style="stroke: gray; fill: none;" marker-start="url(#ZERO_OR_MORE_START)" marker-end="url(#ONLY_ONE_END)" d="M78.66791534423828,110L78.66791534423828,118.33333333333333C78.66791534423828,126.66666666666667,78.66791534423828,143.33333333333334,83.05388025651898,160C87.43984516879969,176.66666666666666,96.21177499336109,193.33333333333334,100.59773990564179,201.66666666666666L104.98370481792249,210" class="er relationshipLine"/><path style="stroke: gray; fill: none;" marker-start="url(#ZERO_OR_MORE_START)" marker-end="url(#ONLY_ONE_END)" d="M361.2431437843724,110L365.6291086966532,118.33333333333333C370.01507360893385,126.66666666666667,378.7870034334953,143.33333333333334,383.1729683457759,161.83333333333334C387.55893325805664,180.33333333333334,387.55893325805664,200.66666666666666,387.55893325805664,210.83333333333334L387.55893325805664,221" class="er relationshipLine"/><path style="stroke: gray; fill: none;" marker-start="url(#ZERO_OR_MORE_START)" marker-end="url(#ONLY_ONE_END)" d="M288.3267900567306,110L279.2097265009295,118.33333333333333C270.0926629451283,126.66666666666667,251.85853583352608,143.33333333333334,233.534762332314,160C215.2109888311018,176.66666666666666,196.79756894027977,193.33333333333334,187.59085899486877,201.66666666666666L178.38414904945776,210" class="er relationshipLine"/><g transform="translate(74.73339080810547,210 )" id="entity-habits-30509790-c621-4a19-a3a2-e20fdcc37ab3"><rect height="90" width="107.86904907226562" y="0" x="0" class="er entityBox"/><text style="dominant-baseline: middle; text-anchor: middle; font-size: 12px;" transform="translate(53.93452453613281,12)" y="0" x="0" id="text-entity-habits-30509790-c621-4a19-a3a2-e20fdcc37ab3" class="er entityLabel">habits</text><rect height="22" width="54.095550537109375" y="24" x="0" class="er attributeBoxOdd"/><text style="dominant-baseline: middle; font-size: 10.2px;" transform="translate(5,35)" y="0" x="0" id="text-entity-habits-30509790-c621-4a19-a3a2-e20fdcc37ab3-attr-1-type" class="er entityLabel">String</text><rect height="22" width="31.0858154296875" y="24" x="54.095550537109375" class="er attributeBoxOdd"/><text style="dominant-baseline: middle; font-size: 10.2px;" transform="translate(59.095550537109375,35)" y="0" x="0" id="text-entity-habits-30509790-c621-4a19-a3a2-e20fdcc37ab3-attr-1-name" class="er entityLabel">id</text><rect height="22" width="22.68768310546875" y="24" x="85.18136596679688" class="er attributeBoxOdd"/><text style="dominant-baseline: middle; font-size: 10.2px;" transform="translate(90.18136596679688,35)" y="0" x="0" id="text-entity-habits-30509790-c621-4a19-a3a2-e20fdcc37ab3-attr-1-key" class="er entityLabel">PK</text><rect height="22" width="54.095550537109375" y="46" x="0" class="er attributeBoxEven"/><text style="dominant-baseline: middle; font-size: 10.2px;" transform="translate(5,57)" y="0" x="0" id="text-entity-habits-30509790-c621-4a19-a3a2-e20fdcc37ab3-attr-2-type" class="er entityLabel">String</text><rect height="22" width="31.0858154296875" y="46" x="54.095550537109375" class="er attributeBoxEven"/><text style="dominant-baseline: middle; font-size: 10.2px;" transform="translate(59.095550537109375,57)" y="0" x="0" id="text-entity-habits-30509790-c621-4a19-a3a2-e20fdcc37ab3-attr-2-name" class="er entityLabel">title</text><rect height="22" width="22.68768310546875" y="46" x="85.18136596679688" class="er attributeBoxEven"/><text style="dominant-baseline: middle; font-size: 10.2px;" transform="translate(90.18136596679688,57)" y="0" x="0" id="text-entity-habits-30509790-c621-4a19-a3a2-e20fdcc37ab3-attr-2-key" class="er entityLabel"/><rect height="22" width="54.095550537109375" y="68" x="0" class="er attributeBoxOdd"/><text style="dominant-baseline: middle; font-size: 10.2px;" transform="translate(5,79)" y="0" x="0" id="text-entity-habits-30509790-c621-4a19-a3a2-e20fdcc37ab3-attr-3-type" class="er entityLabel">DateTime</text><rect height="22" width="31.0858154296875" y="68" x="54.095550537109375" class="er attributeBoxOdd"/><text style="dominant-baseline: middle; font-size: 10.2px;" transform="translate(59.095550537109375,79)" y="0" x="0" id="text-entity-habits-30509790-c621-4a19-a3a2-e20fdcc37ab3-attr-3-name" class="er entityLabel">date</text><rect height="22" width="22.68768310546875" y="68" x="85.18136596679688" class="er attributeBoxOdd"/><text style="dominant-baseline: middle; font-size: 10.2px;" transform="translate(90.18136596679688,79)" y="0" x="0" id="text-entity-habits-30509790-c621-4a19-a3a2-e20fdcc37ab3-attr-3-key" class="er entityLabel"/></g><g transform="translate(333.6244087219238,221 )" id="entity-Day-faf0a351-a8a0-44d0-906c-b1ad5d8b9fc6"><rect height="68" width="107.86904907226562" y="0" x="0" class="er entityBox"/><text style="dominant-baseline: middle; text-anchor: middle; font-size: 12px;" transform="translate(53.93452453613281,12)" y="0" x="0" id="text-entity-Day-faf0a351-a8a0-44d0-906c-b1ad5d8b9fc6" class="er entityLabel">Day</text><rect height="22" width="54.095550537109375" y="24" x="0" class="er attributeBoxOdd"/><text style="dominant-baseline: middle; font-size: 10.2px;" transform="translate(5,35)" y="0" x="0" id="text-entity-Day-faf0a351-a8a0-44d0-906c-b1ad5d8b9fc6-attr-1-type" class="er entityLabel">String</text><rect height="22" width="31.0858154296875" y="24" x="54.095550537109375" class="er attributeBoxOdd"/><text style="dominant-baseline: middle; font-size: 10.2px;" transform="translate(59.095550537109375,35)" y="0" x="0" id="text-entity-Day-faf0a351-a8a0-44d0-906c-b1ad5d8b9fc6-attr-1-name" class="er entityLabel">id</text><rect height="22" width="22.68768310546875" y="24" x="85.18136596679688" class="er attributeBoxOdd"/><text style="dominant-baseline: middle; font-size: 10.2px;" transform="translate(90.18136596679688,35)" y="0" x="0" id="text-entity-Day-faf0a351-a8a0-44d0-906c-b1ad5d8b9fc6-attr-1-key" class="er entityLabel">PK</text><rect height="22" width="54.095550537109375" y="46" x="0" class="er attributeBoxEven"/><text style="dominant-baseline: middle; font-size: 10.2px;" transform="translate(5,57)" y="0" x="0" id="text-entity-Day-faf0a351-a8a0-44d0-906c-b1ad5d8b9fc6-attr-2-type" class="er entityLabel">DateTime</text><rect height="22" width="31.0858154296875" y="46" x="54.095550537109375" class="er attributeBoxEven"/><text style="dominant-baseline: middle; font-size: 10.2px;" transform="translate(59.095550537109375,57)" y="0" x="0" id="text-entity-Day-faf0a351-a8a0-44d0-906c-b1ad5d8b9fc6-attr-2-name" class="er entityLabel">date</text><rect height="22" width="22.68768310546875" y="46" x="85.18136596679688" class="er attributeBoxEven"/><text style="dominant-baseline: middle; font-size: 10.2px;" transform="translate(90.18136596679688,57)" y="0" x="0" id="text-entity-Day-faf0a351-a8a0-44d0-906c-b1ad5d8b9fc6-attr-2-key" class="er entityLabel"/></g><g transform="translate(20,20 )" id="entity-dayhabits-42b31fbf-056d-4e61-8d98-64fefb903339"><rect height="90" width="117.33583068847656" y="0" x="0" class="er entityBox"/><text style="dominant-baseline: middle; text-anchor: middle; font-size: 12px;" transform="translate(58.66791534423828,12)" y="0" x="0" id="text-entity-dayhabits-42b31fbf-056d-4e61-8d98-64fefb903339" class="er entityLabel">day_habits</text><rect height="22" width="37.39605712890625" y="24" x="0" class="er attributeBoxOdd"/><text style="dominant-baseline: middle; font-size: 10.2px;" transform="translate(5,35)" y="0" x="0" id="text-entity-dayhabits-42b31fbf-056d-4e61-8d98-64fefb903339-attr-1-type" class="er entityLabel">String</text><rect height="22" width="57.25209045410156" y="24" x="37.39605712890625" class="er attributeBoxOdd"/><text style="dominant-baseline: middle; font-size: 10.2px;" transform="translate(42.39605712890625,35)" y="0" x="0" id="text-entity-dayhabits-42b31fbf-056d-4e61-8d98-64fefb903339-attr-1-name" class="er entityLabel">id</text><rect height="22" width="22.68768310546875" y="24" x="94.64814758300781" class="er attributeBoxOdd"/><text style="dominant-baseline: middle; font-size: 10.2px;" transform="translate(99.64814758300781,35)" y="0" x="0" id="text-entity-dayhabits-42b31fbf-056d-4e61-8d98-64fefb903339-attr-1-key" class="er entityLabel">PK</text><rect height="22" width="37.39605712890625" y="46" x="0" class="er attributeBoxEven"/><text style="dominant-baseline: middle; font-size: 10.2px;" transform="translate(5,57)" y="0" x="0" id="text-entity-dayhabits-42b31fbf-056d-4e61-8d98-64fefb903339-attr-2-type" class="er entityLabel">Int</text><rect height="22" width="57.25209045410156" y="46" x="37.39605712890625" class="er attributeBoxEven"/><text style="dominant-baseline: middle; font-size: 10.2px;" transform="translate(42.39605712890625,57)" y="0" x="0" id="text-entity-dayhabits-42b31fbf-056d-4e61-8d98-64fefb903339-attr-2-name" class="er entityLabel">week_day</text><rect height="22" width="22.68768310546875" y="46" x="94.64814758300781" class="er attributeBoxEven"/><text style="dominant-baseline: middle; font-size: 10.2px;" transform="translate(99.64814758300781,57)" y="0" x="0" id="text-entity-dayhabits-42b31fbf-056d-4e61-8d98-64fefb903339-attr-2-key" class="er entityLabel"/><rect height="22" width="37.39605712890625" y="68" x="0" class="er attributeBoxOdd"/><text style="dominant-baseline: middle; font-size: 10.2px;" transform="translate(5,79)" y="0" x="0" id="text-entity-dayhabits-42b31fbf-056d-4e61-8d98-64fefb903339-attr-3-type" class="er entityLabel">String</text><rect height="22" width="57.25209045410156" y="68" x="37.39605712890625" class="er attributeBoxOdd"/><text style="dominant-baseline: middle; font-size: 10.2px;" transform="translate(42.39605712890625,79)" y="0" x="0" id="text-entity-dayhabits-42b31fbf-056d-4e61-8d98-64fefb903339-attr-3-name" class="er entityLabel">habitId</text><rect height="22" width="22.68768310546875" y="68" x="94.64814758300781" class="er attributeBoxOdd"/><text style="dominant-baseline: middle; font-size: 10.2px;" transform="translate(99.64814758300781,79)" y="0" x="0" id="text-entity-dayhabits-42b31fbf-056d-4e61-8d98-64fefb903339-attr-3-key" class="er entityLabel"/></g><g transform="translate(286.3138618469238,20 )" id="entity-days-c825885d-925d-405e-8343-08879789f037"><rect height="90" width="102.49014282226562" y="0" x="0" class="er entityBox"/><text style="dominant-baseline: middle; text-anchor: middle; font-size: 12px;" transform="translate(51.24507141113281,12)" y="0" x="0" id="text-entity-days-c825885d-925d-405e-8343-08879789f037" class="er entityLabel">days</text><rect height="22" width="37.39605712890625" y="24" x="0" class="er attributeBoxOdd"/><text style="dominant-baseline: middle; font-size: 10.2px;" transform="translate(5,35)" y="0" x="0" id="text-entity-days-c825885d-925d-405e-8343-08879789f037-attr-1-type" class="er entityLabel">String</text><rect height="22" width="42.406402587890625" y="24" x="37.39605712890625" class="er attributeBoxOdd"/><text style="dominant-baseline: middle; font-size: 10.2px;" transform="translate(42.39605712890625,35)" y="0" x="0" id="text-entity-days-c825885d-925d-405e-8343-08879789f037-attr-1-name" class="er entityLabel">id</text><rect height="22" width="22.68768310546875" y="24" x="79.80245971679688" class="er attributeBoxOdd"/><text style="dominant-baseline: middle; font-size: 10.2px;" transform="translate(84.80245971679688,35)" y="0" x="0" id="text-entity-days-c825885d-925d-405e-8343-08879789f037-attr-1-key" class="er entityLabel">PK</text><rect height="22" width="37.39605712890625" y="46" x="0" class="er attributeBoxEven"/><text style="dominant-baseline: middle; font-size: 10.2px;" transform="translate(5,57)" y="0" x="0" id="text-entity-days-c825885d-925d-405e-8343-08879789f037-attr-2-type" class="er entityLabel">String</text><rect height="22" width="42.406402587890625" y="46" x="37.39605712890625" class="er attributeBoxEven"/><text style="dominant-baseline: middle; font-size: 10.2px;" transform="translate(42.39605712890625,57)" y="0" x="0" id="text-entity-days-c825885d-925d-405e-8343-08879789f037-attr-2-name" class="er entityLabel">dayId</text><rect height="22" width="22.68768310546875" y="46" x="79.80245971679688" class="er attributeBoxEven"/><text style="dominant-baseline: middle; font-size: 10.2px;" transform="translate(84.80245971679688,57)" y="0" x="0" id="text-entity-days-c825885d-925d-405e-8343-08879789f037-attr-2-key" class="er entityLabel"/><rect height="22" width="37.39605712890625" y="68" x="0" class="er attributeBoxOdd"/><text style="dominant-baseline: middle; font-size: 10.2px;" transform="translate(5,79)" y="0" x="0" id="text-entity-days-c825885d-925d-405e-8343-08879789f037-attr-3-type" class="er entityLabel">String</text><rect height="22" width="42.406402587890625" y="68" x="37.39605712890625" class="er attributeBoxOdd"/><text style="dominant-baseline: middle; font-size: 10.2px;" transform="translate(42.39605712890625,79)" y="0" x="0" id="text-entity-days-c825885d-925d-405e-8343-08879789f037-attr-3-name" class="er entityLabel">habitId</text><rect height="22" width="22.68768310546875" y="68" x="79.80245971679688" class="er attributeBoxOdd"/><text style="dominant-baseline: middle; font-size: 10.2px;" transform="translate(84.80245971679688,79)" y="0" x="0" id="text-entity-days-c825885d-925d-405e-8343-08879789f037-attr-3-key" class="er entityLabel"/></g><rect height="14" width="27.96875" y="155.108642578125" x="69.64751434326172" class="er relationshipLabelBox"/><text style="text-anchor: middle; dominant-baseline: middle; font-size: 12px;" y="162.108642578125" x="83.63188934326172" id="rel1" class="er relationshipLabel">habit</text><rect height="14" width="19.990234375" y="156.30715942382812" x="373.51702880859375" class="er relationshipLabelBox"/><text style="text-anchor: middle; dominant-baseline: middle; font-size: 12px;" y="163.30715942382812" x="383.51214599609375" id="rel2" class="er relationshipLabel">day</text><rect height="14" width="27.96875" y="153.08921813964844" x="219.45223999023438" class="er relationshipLabelBox"/><text style="text-anchor: middle; dominant-baseline: middle; font-size: 12px;" y="160.08921813964844" x="233.43661499023438" id="rel3" class="er relationshipLabel">habit</text></svg>